<?xml version="1.0" encoding="utf-8"?>
<svg version="1.0" width="500.000000pt" height="500.000000pt" viewBox="0 0 500.000000 500.000000" preserveAspectRatio="xMidYMid meet" xmlns="http://www.w3.org/2000/svg" xmlns:bx="https://boxy-svg.com">
  <defs>
    <style bx:fonts="Inter">@import url(https://fonts.googleapis.com/css2?family=Inter%3Aital%2Cwght%400%2C100%3B0%2C200%3B0%2C300%3B0%2C400%3B0%2C500%3B0%2C600%3B0%2C700%3B0%2C800%3B0%2C900&amp;display=swap);</style>
  </defs>
  <g transform="matrix(0.018783, 0, 0, -0.018783, 347.253937, 262.386078)" fill="#000000" stroke="none" style="">
    <path d="M -1074.919 3496.673 C -1032.515 3472.706 -1026.984 3382.37 -1065.7 3351.028 C -1080.45 3338.123 -1115.478 3330.749 -1144.976 3334.436 C -1189.222 3339.967 -1196.597 3349.185 -1202.127 3404.493 C -1211.345 3494.829 -1152.35 3537.232 -1074.919 3496.673 Z M 2654.688 3504.047 C 2743.181 3470.862 2724.745 3330.749 2632.565 3330.749 C 2568.039 3330.749 2536.698 3360.246 2536.698 3426.616 C 2536.698 3492.986 2592.006 3528.014 2654.688 3504.047 Z M 2267.532 3266.223 C 2403.958 3236.725 2499.826 3103.985 2499.826 2947.279 C 2499.826 2825.601 2442.674 2744.483 2160.603 2464.256 C 2033.395 2337.047 1928.309 2230.118 1928.309 2222.744 C 1928.309 2217.213 2033.395 2110.284 2160.603 1983.076 C 2289.655 1857.711 2416.863 1717.597 2446.361 1673.351 C 2569.882 1481.616 2475.859 1232.729 2258.314 1173.734 C 2083.172 1125.801 2011.271 1173.734 1537.465 1649.384 C 1177.963 2012.573 1139.247 2056.82 1118.968 2137.938 C 1104.219 2204.308 1102.375 2244.867 1118.968 2313.08 C 1139.247 2392.355 1176.119 2434.758 1541.152 2797.947 C 1961.494 3218.289 2003.897 3253.318 2099.764 3275.441 C 2158.759 3290.19 2167.977 3288.346 2267.532 3266.223 Z M -499.715 3245.943 C -466.53 3229.351 -177.084 2954.653 143.702 2633.867 L 728.124 2051.289 L 617.507 2016.261 C 460.801 1968.327 340.967 1848.493 293.034 1693.631 L 258.005 1581.171 L -339.321 2178.497 C -669.326 2506.658 -947.709 2799.791 -960.615 2827.445 C -1050.951 3037.615 -888.714 3275.441 -656.421 3275.441 C -602.956 3275.441 -532.899 3262.536 -499.715 3245.943 Z M -496.027 1896.427 C -405.691 1852.18 1078.409 364.394 1118.968 279.587 C 1163.214 185.563 1163.214 97.07 1118.968 -0.64 C 1048.911 -153.659 831.366 -234.778 689.409 -161.034 C 604.602 -116.787 -897.932 1363.626 -947.709 1452.119 C -1001.174 1547.986 -997.487 1675.195 -938.491 1776.593 C -849.999 1927.768 -661.951 1979.389 -496.027 1896.427 Z M 801.868 1688.1 C 868.238 1664.133 895.892 1623.574 895.892 1542.455 C 895.892 1418.934 750.248 1354.408 648.849 1433.683 C 610.133 1463.18 600.915 1487.147 600.915 1549.83 C 600.915 1627.261 628.569 1671.507 693.096 1695.474 C 733.655 1710.223 737.342 1710.223 801.868 1688.1 Z M 2474.015 275.9 C 2582.788 25.17 2343.119 -243.996 2073.954 -172.095 C 2002.053 -153.659 1922.779 -79.915 1380.759 460.261 L 766.84 1070.493 L 864.551 1094.459 C 1045.224 1142.393 1172.432 1269.601 1214.835 1452.119 L 1236.958 1542.455 L 1841.66 939.597 C 2177.195 605.905 2459.266 309.085 2474.015 275.9 Z M -505.245 563.502 C -422.283 511.882 -282.17 371.768 -230.549 288.805 C -184.459 213.217 -178.928 54.668 -217.644 -20.92 C -296.918 -173.939 -490.497 -245.839 -643.515 -183.157 C -730.165 -146.285 -921.899 39.919 -966.145 132.099 C -1047.264 298.023 -980.894 486.071 -809.439 580.095 C -744.913 616.967 -577.146 605.905 -505.245 563.502 Z M -1060.169 -271.65 C -1047.264 -286.398 -1039.889 -321.427 -1043.577 -350.924 C -1049.107 -397.014 -1056.482 -402.545 -1121.009 -402.545 C -1200.284 -402.545 -1231.625 -360.142 -1203.971 -286.398 C -1185.535 -238.465 -1095.198 -229.247 -1060.169 -271.65 Z M 2704.465 -284.555 C 2719.214 -314.052 2719.214 -336.176 2704.465 -369.36 C 2687.873 -406.232 2673.124 -413.607 2614.129 -408.076 C 2555.134 -402.545 2545.916 -395.171 2540.385 -350.924 C 2533.01 -284.555 2564.352 -245.839 2630.721 -245.839 C 2665.75 -245.839 2689.716 -258.744 2704.465 -284.555 Z" style="fill: rgb(255, 255, 255);" transform="matrix(0.970296, -0.241922, 0.241922, 0.970296, -352.964067, 227.722304)"/>
  </g>
  <text style="fill: rgb(255, 255, 255); font-family: Inter; font-size: 62px; font-weight: 600; white-space: pre;" x="40.433" y="252.725">WalletKit</text>
</svg>